<svg width="92" height="36" viewBox="0 0 92 36" fill="none" xmlns="http://www.w3.org/2000/svg">
<g clip-path="url(#clip0_34_598)" filter="url(#filter0_d_34_598)">
<path d="M40.1462 14.8593C40.1462 18.745 37.0611 21.6083 33.2749 21.6083C29.4887 21.6083 26.4036 18.745 26.4036 14.8593C26.4036 10.9462 29.4887 8.11023 33.2749 8.11023C37.0611 8.11023 40.1462 10.9462 40.1462 14.8593ZM37.1383 14.8593C37.1383 12.4311 35.3502 10.7697 33.2749 10.7697C31.1996 10.7697 29.4115 12.4311 29.4115 14.8593C29.4115 17.2631 31.1996 18.9489 33.2749 18.9489C35.3502 18.9489 37.1383 17.2601 37.1383 14.8593Z" fill="#555555"/>
<path d="M54.9697 14.8593C54.9697 18.745 51.8846 21.6083 48.0984 21.6083C44.3122 21.6083 41.2271 18.745 41.2271 14.8593C41.2271 10.9492 44.3122 8.11023 48.0984 8.11023C51.8846 8.11023 54.9697 10.9462 54.9697 14.8593ZM51.9618 14.8593C51.9618 12.4311 50.1737 10.7697 48.0984 10.7697C46.0231 10.7697 44.235 12.4311 44.235 14.8593C44.235 17.2631 46.0231 18.9489 48.0984 18.9489C50.1737 18.9489 51.9618 17.2601 51.9618 14.8593Z" fill="#555555"/>
<path d="M69.1756 8.51797V20.6346C69.1756 25.6188 66.1923 27.6545 62.6656 27.6545C59.3457 27.6545 57.3476 25.4667 56.5941 23.6775L59.2129 22.6034C59.6792 23.7018 60.8219 24.9981 62.6625 24.9981C64.92 24.9981 66.3189 23.6258 66.3189 21.0424V20.0717H66.2139C65.5407 20.8902 64.2436 21.6053 62.6069 21.6053C59.182 21.6053 56.0444 18.6659 56.0444 14.8836C56.0444 11.074 59.182 8.11023 62.6069 8.11023C64.2406 8.11023 65.5376 8.8253 66.2139 9.61949H66.3189V8.52102H69.1756V8.51797ZM66.532 14.8836C66.532 12.5072 64.9231 10.7697 62.8756 10.7697C60.8003 10.7697 59.0616 12.5072 59.0616 14.8836C59.0616 17.2358 60.8003 18.9489 62.8756 18.9489C64.9231 18.9489 66.532 17.2358 66.532 14.8836Z" fill="#555555"/>
<path d="M73.8852 1.41614V21.1947H70.9514V1.41614H73.8852Z" fill="#555555"/>
<path d="M85.3179 17.0806L87.6526 18.6142C86.8991 19.7126 85.0832 21.6053 81.9456 21.6053C78.0544 21.6053 75.1484 18.6416 75.1484 14.8562C75.1484 10.8427 78.0791 8.10718 81.609 8.10718C85.1635 8.10718 86.9022 10.8944 87.4704 12.4007L87.7823 13.1675L78.6257 16.9041C79.3268 18.2582 80.4169 18.9489 81.9456 18.9489C83.4774 18.9489 84.5397 18.2064 85.3179 17.0806ZM78.1316 14.6524L84.2525 12.1481C83.9159 11.3052 82.9029 10.7179 81.7109 10.7179C80.1822 10.7179 78.0544 12.0477 78.1316 14.6524Z" fill="#555555"/>
<path d="M15.2984 13.1036V10.2402H25.0912C25.1869 10.7393 25.2363 11.3296 25.2363 11.9686C25.2363 14.1168 24.6403 16.7733 22.7194 18.6659C20.851 20.5829 18.4638 21.6053 15.3015 21.6053C9.43999 21.6053 4.51117 16.9011 4.51117 11.1257C4.51117 5.35038 9.43999 0.646118 15.3015 0.646118C18.5441 0.646118 20.8541 1.89978 22.5897 3.53379L20.5391 5.55425C19.2946 4.40405 17.6084 3.50945 15.2984 3.50945C11.0181 3.50945 7.67043 6.90832 7.67043 11.1257C7.67043 15.3431 11.0181 18.742 15.2984 18.742C18.0747 18.742 19.6559 17.6435 20.6688 16.6455C21.4903 15.8361 22.0307 14.6798 22.2438 13.1005L15.2984 13.1036Z" fill="#555555"/>
</g>
<defs>
<filter id="filter0_d_34_598" x="0.399902" y="0.503052" width="92" height="35.9943" filterUnits="userSpaceOnUse" color-interpolation-filters="sRGB">
<feFlood flood-opacity="0" result="BackgroundImageFix"/>
<feColorMatrix in="SourceAlpha" type="matrix" values="0 0 0 0 0 0 0 0 0 0 0 0 0 0 0 0 0 0 127 0" result="hardAlpha"/>
<feOffset dy="4"/>
<feGaussianBlur stdDeviation="2"/>
<feComposite in2="hardAlpha" operator="out"/>
<feColorMatrix type="matrix" values="0 0 0 0 0 0 0 0 0 0 0 0 0 0 0 0 0 0 0.25 0"/>
<feBlend mode="normal" in2="BackgroundImageFix" result="effect1_dropShadow_34_598"/>
<feBlend mode="normal" in="SourceGraphic" in2="effect1_dropShadow_34_598" result="shape"/>
</filter>
<clipPath id="clip0_34_598">
<rect width="84" height="27.9943" fill="white" transform="translate(4.3999 0.503052)"/>
</clipPath>
</defs>
</svg>
